<svg xmlns="http://www.w3.org/2000/svg" style="display:none" aria-hidden="true">
  <!-- Symbol IDs below mirror the ICON_NAMES array in ./icon-names.ts -->
  <defs>
    <symbol id="pf-icon-check" viewBox="0 0 24 24" fill="none" stroke="currentColor" stroke-width="2" stroke-linecap="round" stroke-linejoin="round">
      <polyline points="20 6 9 17 4 12"/>
    </symbol>
    <symbol id="pf-icon-x" viewBox="0 0 24 24" fill="none" stroke="currentColor" stroke-width="2" stroke-linecap="round" stroke-linejoin="round">
      <line x1="18" y1="6" x2="6" y2="18"/>
      <line x1="6" y1="6" x2="18" y2="18"/>
    </symbol>
    <symbol id="pf-icon-chevron-down" viewBox="0 0 24 24" fill="none" stroke="currentColor" stroke-width="2" stroke-linecap="round" stroke-linejoin="round">
      <polyline points="6 9 12 15 18 9"/>
    </symbol>
    <symbol id="pf-icon-chevron-up" viewBox="0 0 24 24" fill="none" stroke="currentColor" stroke-width="2" stroke-linecap="round" stroke-linejoin="round">
      <polyline points="18 15 12 9 6 15"/>
    </symbol>
    <symbol id="pf-icon-chevron-left" viewBox="0 0 24 24" fill="none" stroke="currentColor" stroke-width="2" stroke-linecap="round" stroke-linejoin="round">
      <polyline points="15 18 9 12 15 6"/>
    </symbol>
    <symbol id="pf-icon-chevron-right" viewBox="0 0 24 24" fill="none" stroke="currentColor" stroke-width="2" stroke-linecap="round" stroke-linejoin="round">
      <polyline points="9 18 15 12 9 6"/>
    </symbol>
    <symbol id="pf-icon-plus" viewBox="0 0 24 24" fill="none" stroke="currentColor" stroke-width="2" stroke-linecap="round" stroke-linejoin="round">
      <line x1="12" y1="5" x2="12" y2="19"/>
      <line x1="5" y1="12" x2="19" y2="12"/>
    </symbol>
    <symbol id="pf-icon-search" viewBox="0 0 24 24" fill="none" stroke="currentColor" stroke-width="2" stroke-linecap="round" stroke-linejoin="round">
      <circle cx="11" cy="11" r="8"/>
      <line x1="21" y1="21" x2="16.65" y2="16.65"/>
    </symbol>
    <symbol id="pf-icon-trash" viewBox="0 0 24 24" fill="none" stroke="currentColor" stroke-width="2" stroke-linecap="round" stroke-linejoin="round">
      <polyline points="3 6 5 6 21 6"/>
      <path d="M19 6l-2 14a2 2 0 0 1-2 2H9a2 2 0 0 1-2-2L5 6"/>
      <path d="M10 11v6"/>
      <path d="M14 11v6"/>
    </symbol>
    <symbol id="pf-icon-edit" viewBox="0 0 24 24" fill="none" stroke="currentColor" stroke-width="2" stroke-linecap="round" stroke-linejoin="round">
      <path d="M11 4H4a2 2 0 0 0-2 2v14a2 2 0 0 0 2 2h14a2 2 0 0 0 2-2v-7"/>
      <path d="M18.5 2.5a2.121 2.121 0 0 1 3 3L12 15l-4 1 1-4 9.5-9.5z"/>
    </symbol>
    <symbol id="pf-icon-info" viewBox="0 0 24 24" fill="none" stroke="currentColor" stroke-width="2" stroke-linecap="round" stroke-linejoin="round">
      <circle cx="12" cy="12" r="10"/>
      <line x1="12" y1="16" x2="12" y2="12"/>
      <line x1="12" y1="8" x2="12.01" y2="8"/>
    </symbol>
    <symbol id="pf-icon-alert-triangle" viewBox="0 0 24 24" fill="none" stroke="currentColor" stroke-width="2" stroke-linecap="round" stroke-linejoin="round">
      <path d="M10.29 3.86L1.82 18a2 2 0 0 0 1.71 3h16.94a2 2 0 0 0 1.71-3L13.71 3.86a2 2 0 0 0-3.42 0z"/>
      <line x1="12" y1="9" x2="12" y2="13"/>
      <line x1="12" y1="17" x2="12.01" y2="17"/>
    </symbol>
    <symbol id="pf-icon-check-circle" viewBox="0 0 24 24" fill="none" stroke="currentColor" stroke-width="2" stroke-linecap="round" stroke-linejoin="round">
      <path d="M22 11.08V12a10 10 0 1 1-5.93-9.14"/>
      <polyline points="22 4 12 14.01 9 11.01"/>
    </symbol>
    <symbol id="pf-icon-more-horizontal" viewBox="0 0 24 24" fill="none" stroke="currentColor" stroke-width="2" stroke-linecap="round" stroke-linejoin="round">
      <circle cx="12" cy="12" r="1"/>
      <circle cx="19" cy="12" r="1"/>
      <circle cx="5" cy="12" r="1"/>
    </symbol>
    <symbol id="pf-icon-square" viewBox="0 0 24 24" fill="none" stroke="currentColor" stroke-width="2" stroke-linecap="round" stroke-linejoin="round">
      <rect x="3" y="3" width="18" height="18" rx="2"/>
    </symbol>
  </defs>
</svg>
